<svg xmlns="http://www.w3.org/2000/svg" xmlns:xlink="http://www.w3.org/1999/xlink"><symbol id="arrow-left-bold" viewBox="0 0 306 306"><path d="M247.35 270.3L130.05 153l117.3-117.3L211.65 0l-153 153 153 153z"/></symbol><symbol id="arrow-left-thin" viewBox="0 0 59 59"><path d="M43.854 59.414L14.146 29.707 43.854 0l1.414 1.414-28.293 28.293L45.268 58z"/></symbol><symbol id="arrow-right-bold" viewBox="0 0 306 306"><path d="M94.35 0l-35.7 35.7L175.95 153 58.65 270.3l35.7 35.7 153-153z"/></symbol><symbol id="arrow-right-thin" viewBox="0 0 59 59"><path d="M15.561 59.414L14.146 58l28.293-28.293L14.146 1.414 15.561 0l29.707 29.707z"/></symbol><symbol id="facebook" viewBox="0 0 430 430"><path d="M158.081 83.3v59.218h-43.385v72.412h43.385v215.183h89.122V214.936h59.805s5.601-34.721 8.316-72.685H247.54V92.74c0-7.4 9.717-17.354 19.321-17.354h48.557V.001h-66.021C155.878-.004 158.081 72.48 158.081 83.3z"/></symbol><symbol id="instagram" viewBox="0 0 486 486"><path d="M464.413 0H21.948C9.849 0 0 9.819 0 21.918v442.555c0 12.069 9.849 21.918 21.948 21.918h442.464c12.129 0 21.979-9.849 21.979-21.918V21.918C486.392 9.819 476.542 0 464.413 0zM243.196 158.32c46.876 0 84.875 37.999 84.875 84.875s-37.999 84.875-84.875 84.875-84.875-37.999-84.875-84.875 37.999-84.875 84.875-84.875zm182.397 267.273H60.799V212.796h40.036c-2.098 9.819-3.314 19.972-3.314 30.399 0 80.346 65.359 145.674 145.674 145.674 80.346 0 145.674-65.328 145.674-145.674 0-10.427-1.216-20.58-3.283-30.399h40.006v212.797zm0-273.596h-91.198V60.799h91.198v91.198z"/></symbol><symbol id="magnifier" viewBox="0 0 30 30"><path d="M20.194 3.46c-4.613-4.613-12.121-4.613-16.734 0-4.612 4.614-4.612 12.121 0 16.735 4.108 4.107 10.506 4.547 15.116 1.34.097.459.319.897.676 1.254l6.718 6.718a2.498 2.498 0 0 0 3.535 0 2.496 2.496 0 0 0 0-3.535l-6.718-6.72a2.5 2.5 0 0 0-1.253-.674c3.209-4.611 2.769-11.008-1.34-15.118zm-2.121 14.614c-3.444 3.444-9.049 3.444-12.492 0-3.442-3.444-3.442-9.048 0-12.492 3.443-3.443 9.048-3.443 12.492 0 3.444 3.444 3.444 9.048 0 12.492z"/></symbol><symbol id="pinterest" viewBox="0 0 439 439"><path d="M409.141 109.203c-19.608-33.592-46.205-60.189-79.798-79.796C295.751 9.801 259.065 0 219.281 0 179.5 0 142.812 9.801 109.22 29.407c-33.597 19.604-60.194 46.201-79.8 79.796C9.809 142.8.008 179.485.008 219.267c0 44.35 12.085 84.611 36.258 120.767 24.172 36.172 55.863 62.912 95.073 80.232-.762-20.365.476-37.209 3.709-50.532l28.267-119.348c-4.76-9.329-7.139-20.93-7.139-34.831 0-16.175 4.089-29.689 12.275-40.541 8.186-10.85 18.177-16.274 29.979-16.274 9.514 0 16.841 3.14 21.982 9.42 5.142 6.283 7.705 14.181 7.705 23.7 0 5.896-1.099 13.084-3.289 21.554-2.188 8.471-5.041 18.273-8.562 29.409-3.521 11.132-6.045 20.036-7.566 26.692-2.663 11.608-.476 21.553 6.567 29.838 7.042 8.278 16.372 12.423 27.983 12.423 20.365 0 37.065-11.324 50.107-33.972 13.038-22.655 19.554-50.159 19.554-82.514 0-24.938-8.042-45.21-24.129-60.813-16.085-15.609-38.496-23.417-67.239-23.417-32.161 0-58.192 10.327-78.082 30.978-19.891 20.654-29.836 45.352-29.836 74.091 0 17.132 4.854 31.505 14.56 43.112 3.235 3.806 4.283 7.898 3.14 12.279-.381 1.143-1.141 3.997-2.284 8.562-1.138 4.565-1.903 7.522-2.281 8.851-1.521 6.091-5.14 7.994-10.85 5.708-14.654-6.085-25.791-16.652-33.402-31.689-7.614-15.037-11.422-32.456-11.422-52.246 0-12.753 2.047-25.505 6.14-38.256 4.089-12.756 10.468-25.078 19.126-36.975 8.663-11.9 19.036-22.417 31.123-31.549 12.082-9.135 26.787-16.462 44.108-21.982s35.972-8.28 55.959-8.28c27.032 0 51.295 5.995 72.8 17.986 21.512 11.992 37.925 27.502 49.252 46.537 11.327 19.036 16.987 39.403 16.987 61.101 0 28.549-4.948 54.243-14.842 77.086-9.896 22.839-23.887 40.778-41.973 53.813-18.083 13.042-38.637 19.561-61.675 19.561-11.607 0-22.456-2.714-32.548-8.135-10.085-5.427-17.034-11.847-20.839-19.273-8.566 33.685-13.706 53.77-15.42 60.24-3.616 13.508-11.038 29.119-22.27 46.819 20.367 6.091 41.112 9.13 62.24 9.13 39.781 0 76.47-9.801 110.062-29.41 33.595-19.602 60.192-46.199 79.794-79.791 19.606-33.599 29.407-70.287 29.407-110.065.01-39.778-9.777-76.468-29.376-110.06z"/></symbol><symbol id="plus" viewBox="0 0 533 533"><path d="M516.667 200H333.333V16.667C333.333 7.462 325.871 0 316.667 0h-100C207.462 0 200 7.462 200 16.667V200H16.667C7.462 200 0 207.462 0 216.667v100c0 9.204 7.462 16.666 16.667 16.666H200v183.334c0 9.204 7.462 16.666 16.667 16.666h100c9.204 0 16.667-7.462 16.667-16.666V333.333h183.333c9.204 0 16.667-7.462 16.667-16.666v-100c-.001-9.205-7.463-16.667-16.667-16.667z"/></symbol><symbol id="shop-bag" viewBox="0 0 203 203"><path d="M177.91 55.377h-22.589v-1.368C155.311 24.25 131.091 0 101.302 0c-29.799 0-54.01 24.25-54.01 54.009v1.368H24.704L11.495 202.614h179.624L177.91 55.377zM101.302 6.624c19.687 0 36.619 12.105 43.761 29.232-9.448-14.137-25.5-23.478-43.761-23.478-18.231 0-34.313 9.34-43.77 23.507 7.181-17.156 24.103-29.261 43.77-29.261zM57.297 55.377c4.406-20.263 22.481-35.485 44.024-35.485 21.582 0 39.618 15.222 44.024 35.485H57.297z"/></symbol><symbol id="tumblr" viewBox="0 0 430 430"><path d="M252.797 351.543c-7.229-4.247-13.866-11.547-16.513-18.589-2.679-7.09-2.338-21.455-2.338-46.419V176.243h100.301V99.477H233.951V0h-61.713c-2.753 22.155-7.824 40.459-15.18 54.815-7.369 14.377-17.088 26.658-29.276 36.924-12.127 10.246-31.895 18.143-48.927 23.589v60.915h58.922v150.836c0 19.694 2.088 34.718 6.24 45.061 4.172 10.333 11.623 20.124 22.386 29.337 10.762 9.115 23.758 16.228 39.003 21.226 15.227 4.942 26.936 7.416 46.767 7.416 17.445 0 33.687-1.759 48.747-5.198 15.042-3.529 31.834-9.605 50.344-18.221v-67.859c-21.721 14.169-43.567 21.221-65.535 21.221-12.365.003-23.294-2.839-32.932-8.519z"/></symbol><symbol id="twitter" viewBox="0 0 612 612"><path d="M612 116.258a250.714 250.714 0 0 1-72.088 19.772c25.929-15.527 45.777-40.155 55.184-69.411-24.322 14.379-51.169 24.82-79.775 30.48-22.907-24.437-55.49-39.658-91.63-39.658-69.334 0-125.551 56.217-125.551 125.513 0 9.828 1.109 19.427 3.251 28.606-104.326-5.24-196.835-55.223-258.75-131.174-10.823 18.51-16.98 40.078-16.98 63.101 0 43.559 22.181 81.993 55.835 104.479a125.556 125.556 0 0 1-56.867-15.756v1.568c0 60.806 43.291 111.554 100.693 123.104-10.517 2.83-21.607 4.398-33.08 4.398-8.107 0-15.947-.803-23.634-2.333 15.985 49.907 62.336 86.199 117.253 87.194-42.947 33.654-97.099 53.655-155.916 53.655-10.134 0-20.116-.612-29.944-1.721 55.567 35.681 121.536 56.485 192.438 56.485 230.948 0 357.188-191.291 357.188-357.188l-.421-16.253c24.666-17.593 46.005-39.697 62.794-64.861z"/></symbol><symbol id="user" viewBox="0 0 448 448"><path d="M279.412 311.368c-11.055-1.759-11.307-32.157-11.307-32.157s32.484-32.158 39.564-75.401c19.045 0 30.809-45.973 11.76-62.148C320.227 124.635 343.91 8 224 8c-119.911 0-96.225 116.635-95.432 133.662-19.047 16.175-7.285 62.148 11.761 62.148 7.079 43.243 39.564 75.401 39.564 75.401s-.252 30.398-11.307 32.157C132.976 317.034 0 375.686 0 440h448c0-64.314-132.977-122.966-168.588-128.632z"/></symbol><symbol id="vimeo" viewBox="0 0 430 430"><path d="M367.243 28.754c-59.795-1.951-100.259 31.591-121.447 100.664 10.912-4.494 21.516-6.762 31.858-6.762 21.804 0 31.455 12.237 28.879 36.776-1.278 14.86-10.911 36.482-28.879 64.858-18.039 28.423-31.513 42.61-40.464 42.61-11.621 0-22.199-21.958-31.857-65.82-3.239-12.918-9.031-45.812-17.324-98.765-7.775-49.046-28.32-71.962-61.727-68.741-14.132 1.299-35.302 14.241-63.556 38.734C42.113 91.032 21.228 109.761 0 128.471l20.225 26.112c19.303-13.562 30.595-20.311 33.731-20.311 14.802 0 28.625 23.219 41.488 69.651 11.53 42.644 23.158 85.23 34.744 127.812 17.256 46.466 38.529 69.708 63.552 69.708 40.473 0 90.028-38.065 148.469-114.223 56.537-72.909 85.725-130.352 87.694-172.341 2.595-56.115-18.29-84.851-62.66-86.125z"/></symbol></svg>